<svg id="cctv_1_" data-name="cctv (1)" xmlns="http://www.w3.org/2000/svg" width="155.855" height="156.529" viewBox="0 0 155.855 156.529">
  <ellipse id="Ellipse_10" data-name="Ellipse 10" cx="77.812" cy="78.264" rx="77.812" ry="78.264" transform="translate(0.231)" fill="#84dbff"/>
  <path id="Path_121" data-name="Path 121" d="M102.31,282.132l-.31-6.1,16.571-.867L128.2,244.5l5.823,1.827-10.252,32.708a3.058,3.058,0,0,1-2.757,2.137Z" transform="translate(-70.407 -168.771)" fill="#2b3b4e"/>
  <path id="Path_122" data-name="Path 122" d="M28.867,56.4a78.007,78.007,0,0,0,0,121.167Z" transform="translate(0 -38.931)" fill="#ffd05b"/>
  <path id="Path_123" data-name="Path 123" d="M93.2,329.939h0V292.4h0a5.75,5.75,0,0,1,5.761,5.761v26.017A5.75,5.75,0,0,1,93.2,329.939Z" transform="translate(-64.333 -201.835)" fill="#324a5e"/>
  <path id="Path_124" data-name="Path 124" d="M171.978,208.709h0a9.212,9.212,0,0,1-3.624-12.513l8.672-15.8,16.137,8.858-8.672,15.8A9.222,9.222,0,0,1,171.978,208.709Z" transform="translate(-115.421 -124.524)" fill="#acb3ba"/>
  <path id="Path_125" data-name="Path 125" d="M291.327,212.5l16.261,8.951a.35.35,0,0,0,.465-.124l8.084-14.712a.35.35,0,0,0-.124-.465L299.751,197.2a.35.35,0,0,0-.465.124L291.2,212.039A.35.35,0,0,0,291.327,212.5Z" transform="translate(-200.978 -136.093)" fill="#324a5e"/>
  <path id="Path_126" data-name="Path 126" d="M184.837,154.8l-53.4-29.332a1.337,1.337,0,0,1-.527-1.827l13.226-24.1a1.337,1.337,0,0,1,1.827-.527l53.4,29.332a1.337,1.337,0,0,1,.527,1.827l-13.226,24.1A1.337,1.337,0,0,1,184.837,154.8Z" transform="translate(-90.245 -68.226)" fill="#ced5e0"/>
  <g id="Group_81" data-name="Group 81" transform="translate(47.295 19.007)">
    <path id="Path_127" data-name="Path 127" d="M154.68,78.938l60.367,33.172a20,20,0,0,0,24.438-4.088l2.88-3.159-78.3-43.022a3.784,3.784,0,0,0-5.173,1.518l-5.7,10.376A3.791,3.791,0,0,0,154.68,78.938Z" transform="translate(-152.697 -61.366)" fill="#e6e9ee"/>
    <circle id="Ellipse_11" data-name="Ellipse 11" cx="3.81" cy="3.81" r="3.81" transform="translate(9.603 53.811)" fill="#e6e9ee"/>
  </g>
  <circle id="Ellipse_12" data-name="Ellipse 12" cx="2.633" cy="2.633" r="2.633" transform="translate(89.481 72.787)" fill="#2c9984"/>
</svg>
