<svg xmlns="http://www.w3.org/2000/svg" width="156" height="157" viewBox="0 0 156 157">
  <g id="Group_79" data-name="Group 79" transform="translate(0.079 0.471)">
    <ellipse id="Ellipse_4" data-name="Ellipse 4" cx="78" cy="78.5" rx="78" ry="78.5" transform="translate(-0.079 -0.471)" fill="#84dbff"/>
    <g id="manager_1_" data-name="manager (1)" transform="translate(26.561 27.651)">
      <g id="Group_73" data-name="Group 73" transform="translate(38.124 56.861)">
        <path id="Path_88" data-name="Path 88" d="M197.1,290.955l.033.022h0v-.03l.015.02.018-.012h0l.006-.008v0l12.628-8.439h0v-6.356a26.418,26.418,0,0,0-2.732,2.148c-5.541,5.009-10.976,4.151-10.976,4.151-3.315.087-8.037-3.309-10.05-4.89q-.768-.6-1.578-1.152v6.1h0Z" transform="translate(-184.463 -276.157)" fill="#f6c358"/>
        <path id="Path_89" data-name="Path 89" d="M230.077,347.869h0l-4.086,5.565h0Z" transform="translate(-217.408 -333.047)" fill="#f6c358"/>
      </g>
      <path id="Path_90" data-name="Path 90" d="M135.454,17.73h7.861a6.905,6.905,0,0,0,2.111-.327c1.424-.457,3.688-1.3,5.4-1.95a6.925,6.925,0,0,1,4.755-.06l8.274,2.9a9.333,9.333,0,0,1,6.135,7.271v14.77a26.739,26.739,0,0,1,3.255-8.98,6.188,6.188,0,0,0,.949-3.273V15.344s-.8-6.249-6.93-7.726c0,0,2.5-5.322-3.976-6.581H139.43A15.792,15.792,0,0,0,123.638,16.83v9.362a8.912,8.912,0,0,0,1.949,5.584,10.373,10.373,0,0,1,2.2,6.032V25.4A9.6,9.6,0,0,1,135.454,17.73Z" transform="translate(-98.085 -1.038)" fill="#64798a"/>
      <path id="Path_91" data-name="Path 91" d="M163.755,117.8s5.435.858,10.976-4.151a26.413,26.413,0,0,1,2.732-2.148c.094-.065.187-.132.281-.2,2.453-1.648,7.166-6.217,8.165-17.363V79.171a9.333,9.333,0,0,0-6.135-7.271l-8.275-2.9a6.925,6.925,0,0,0-4.755.06c-1.714.651-3.978,1.493-5.4,1.95a6.911,6.911,0,0,1-2.111.327h-7.861A9.6,9.6,0,0,0,143.7,79V94.282s.267,12.071,8.259,17.361c.056.037.11.077.165.115q.809.547,1.578,1.152C155.718,114.491,160.44,117.887,163.755,117.8Z" transform="translate(-114.002 -54.639)" fill="#fcd462"/>
      <g id="Group_74" data-name="Group 74" transform="translate(41.547 71.682)">
        <path id="Path_92" data-name="Path 92" d="M258.254,376.379l-2.2,3.156,2.03,12.794,5.087-9.25Z" transform="translate(-244.683 -370.487)" fill="#d5d6db"/>
        <path id="Path_93" data-name="Path 93" d="M206.144,392.278l2.039-12.851-2.217-3.184-4.94,6.728Z" transform="translate(-201.026 -370.379)" fill="#d5d6db"/>
        <path id="Path_94" data-name="Path 94" d="M225.329,353.436l-.173.235,4.259-5.778v-.021h0Z" transform="translate(-220.169 -347.871)" fill="#d5d6db"/>
      </g>
      <g id="Group_75" data-name="Group 75" transform="translate(46.487 71.651)">
        <path id="Path_95" data-name="Path 95" d="M233.391,369.712l-2.03-12.794,2.2-3.156h0l-4.326-5.892h0v.021l-4.259,5.778-.047.064h0l2.217,3.184-2.039,12.851h0l4.127,7.5,4.158-7.56Z" transform="translate(-224.927 -347.839)" fill="#e56353"/>
        <path id="Path_96" data-name="Path 96" d="M245.835,488.845l.394-.394-.407.372Z" transform="translate(-241.504 -459.365)" fill="#e56353"/>
        <path id="Path_97" data-name="Path 97" d="M244.138,488.823l-.407-.372.394.394Z" transform="translate(-239.845 -459.365)" fill="#e56353"/>
        <path id="Path_98" data-name="Path 98" d="M245.67,490.324l.019.019.019-.019-.019-.017h0Z" transform="translate(-241.383 -460.837)" fill="#e56353"/>
        <path id="Path_99" data-name="Path 99" d="M245.928,347.719l-.006.008.006,0Z" transform="translate(-241.583 -347.719)" fill="#e56353"/>
        <path id="Path_100" data-name="Path 100" d="M245.761,347.719v.03l.015-.01Z" transform="translate(-241.455 -347.719)" fill="#e56353"/>
      </g>
      <g id="Group_76" data-name="Group 76" transform="translate(31.308 63.216)">
        <path id="Path_101" data-name="Path 101" d="M245.8,315.348l-.006,0h0l-.018.012-.015.01h0l4.326,5.892,4.92,6.7,10.238-18.615-6.816-2.443h0Z" transform="translate(-226.276 -306.909)" fill="#e1e6e9"/>
        <path id="Path_102" data-name="Path 102" d="M166.664,321.239h0l.219-.3,4.086-5.565h0l-.033-.022L158.3,306.909h0l-6.816,2.443,10.238,18.615Z" transform="translate(-151.485 -306.909)" fill="#e1e6e9"/>
      </g>
      <g id="Group_77" data-name="Group 77" transform="translate(50.793 65.66)">
        <path id="Path_103" data-name="Path 103" d="M296.586,348.739l-2.293-13.847a10.468,10.468,0,0,0-6.766-8.133l-22.185-8.026,5.892,11.816-7.369.114,2.5,4.772-20.088,18.376-.394.394.014.025h46.034A4.719,4.719,0,0,0,296.586,348.739Z" transform="translate(-245.858 -318.732)" fill="#3a556a"/>
        <path id="Path_104" data-name="Path 104" d="M245.779,490.39l-.019.019h.039Z" transform="translate(-245.76 -454.912)" fill="#3a556a"/>
      </g>
      <g id="Group_78" data-name="Group 78" transform="translate(50.768 65.66)">
        <path id="Path_105" data-name="Path 105" d="M249.918,346.6l-4.158,7.56h0l.013.023.407-.372,20.088-18.376-2.5-4.772,7.369-.113-5.892-11.816-10.238,18.615Z" transform="translate(-245.735 -318.732)" fill="#2f4859"/>
        <path id="Path_106" data-name="Path 106" d="M245.645,490.279l.018-.017h0l-.013-.012-.012.022Z" transform="translate(-245.638 -454.801)" fill="#2f4859"/>
      </g>
      <path id="Path_107" data-name="Path 107" d="M50.774,354.209l-.007-.007-.394-.394L30.286,335.432l2.5-4.772-7.369-.114,5.892-11.816L9.124,326.757a10.468,10.468,0,0,0-6.766,8.133L.064,348.738a4.719,4.719,0,0,0,4.656,5.49H50.793Z" transform="translate(0 -253.071)" fill="#3a556a"/>
      <path id="Path_108" data-name="Path 108" d="M148.378,354.2l-.012-.022-.013-.023h0l-4.127-7.5-5.119-9.307-10.238-18.615-5.892,11.816,7.369.113-2.5,4.772,20.088,18.376.407.372.013.012h0l.019.017.021.019Z" transform="translate(-97.56 -253.072)" fill="#2f4859"/>
    </g>
  </g>
</svg>
