<svg id="Group_92" data-name="Group 92" xmlns="http://www.w3.org/2000/svg" width="153.619" height="153.379" viewBox="0 0 153.619 153.379">
  <ellipse id="Ellipse_5" data-name="Ellipse 5" cx="76.682" cy="76.69" rx="76.682" ry="76.69" transform="translate(0.127 0)" fill="#84dbff"/>
  <path id="Path_109" data-name="Path 109" d="M140.738,385.928,130.7,373.91l10.043-12.019H156.52c-3.826-6.9-11-11.763-19.129-11.763a21.946,21.946,0,0,0-20.564,15.087H47.963c-3.348-8.694-11.238-15.087-20.564-15.087A21.688,21.688,0,0,0,8.271,361.891H24.052L34.1,373.91,24.052,385.928H8.271c3.826,6.9,11,11.763,19.129,11.763A21.946,21.946,0,0,0,47.963,382.6h68.864c3.348,8.694,11.238,15.087,20.564,15.087a21.688,21.688,0,0,0,19.129-11.763Z" transform="translate(-5.586 -246.869)" fill="#fff"/>
  <path id="Path_110" data-name="Path 110" d="M131.93,395.993c-9.586,0-18.214-5.881-22.288-15.087H43.738c-4.074,9.206-12.7,15.087-22.288,15.087A24.177,24.177,0,0,1,.36,383.207a2.454,2.454,0,0,1,0-2.557,2.486,2.486,0,0,1,2.157-1.278H17.376l7.909-9.461-7.909-9.462H2.517A2.486,2.486,0,0,1,.36,359.17a2.454,2.454,0,0,1,0-2.557,24.177,24.177,0,0,1,21.09-12.786c9.586,0,18.214,5.881,22.288,15.087h65.9c4.074-9.206,12.7-15.087,22.288-15.087a24.361,24.361,0,0,1,20.85,12.53,2.4,2.4,0,0,1,.719,1.79,2.344,2.344,0,0,1-2.4,2.557H136.244l-7.909,8.95,7.909,9.462H151.1a2.487,2.487,0,0,1,2.157,1.278,2.454,2.454,0,0,1,0,2.557A24.573,24.573,0,0,1,131.93,395.993ZM42.3,375.791h69.02a2.433,2.433,0,0,1,2.157,1.534c3.116,8.183,10.305,13.3,18.453,13.3a18.86,18.86,0,0,0,14.379-6.649H135.285a1.82,1.82,0,0,1-1.678-.767l-10.065-11.763a2.831,2.831,0,0,1,0-3.324L133.608,356.1a2.509,2.509,0,0,1,1.678-.767H146.31a19.362,19.362,0,0,0-14.379-6.649c-8.148,0-15.338,5.37-18.453,13.3a2.3,2.3,0,0,1-2.157,1.534H42.3a2.433,2.433,0,0,1-2.157-1.534c-3.116-8.183-10.305-13.3-18.453-13.3A18.86,18.86,0,0,0,7.31,355.334H18.334a1.82,1.82,0,0,1,1.678.767L30.077,368.12a2.831,2.831,0,0,1,0,3.324L20.012,383.463a2.509,2.509,0,0,1-1.678.767H7.31a19.362,19.362,0,0,0,14.379,6.649c8.148,0,15.338-5.37,18.453-13.3A2.333,2.333,0,0,1,42.3,375.791Z" transform="translate(-0.001 -242.614)" fill="#183651"/>
  <path id="Path_111" data-name="Path 111" d="M50.72,365.216a24,24,0,0,0-21.992-15.087A23.424,23.424,0,0,0,8.271,361.892H25.148l10.74,12.019-10.74,12.019H8.271a23.965,23.965,0,0,0,20.457,11.763A23.366,23.366,0,0,0,50.72,382.605" transform="translate(-5.586 -246.87)" fill="#e1e6e7"/>
  <path id="Path_112" data-name="Path 112" d="M23.143,395.993A26.078,26.078,0,0,1,.64,383.207a2.323,2.323,0,0,1,0-2.557,2.685,2.685,0,0,1,2.3-1.278H18.8l8.439-9.461L18.8,360.448H2.686a2.685,2.685,0,0,1-2.3-1.278,2.323,2.323,0,0,1,0-2.557,26.078,26.078,0,0,1,22.5-12.786A25.717,25.717,0,0,1,47.18,360.448a2.589,2.589,0,0,1-4.859,1.79,19.8,19.8,0,0,0-19.179-13.553A20.71,20.71,0,0,0,7.8,355.334H19.563a1.991,1.991,0,0,1,1.79.767l10.74,12.019a2.689,2.689,0,0,1,0,3.324l-10.74,12.019a2.762,2.762,0,0,1-1.79.767H7.8a21.26,21.26,0,0,0,15.343,6.649,21.448,21.448,0,0,0,19.69-13.3,2.589,2.589,0,0,1,4.859,1.79C43.344,389.344,33.883,395.993,23.143,395.993Z" transform="translate(-0.001 -242.614)" fill="#183651"/>
  <path id="Path_113" data-name="Path 113" d="M365.883,382.6a24,24,0,0,0,21.992,15.087,23.424,23.424,0,0,0,20.457-11.763H391.454l-10.74-12.019,10.74-12.019h16.877a23.965,23.965,0,0,0-20.457-11.763,23.366,23.366,0,0,0-21.992,15.087" transform="translate(-257.398 -246.869)" fill="#e1e6e7"/>
  <g id="Group_80" data-name="Group 80" transform="translate(53.762 100.958)">
    <path id="Path_114" data-name="Path 114" d="M382.679,395.461a25.717,25.717,0,0,1-24.293-16.621,2.589,2.589,0,0,1,4.859-1.79,21.062,21.062,0,0,0,19.69,13.3,20.71,20.71,0,0,0,15.343-6.649H386.515a1.991,1.991,0,0,1-1.79-.767l-11-12.019a2.689,2.689,0,0,1,0-3.324l10.74-12.019a2.762,2.762,0,0,1,1.79-.767h11.763a21.149,21.149,0,0,0-35.033,6.649,2.66,2.66,0,0,1-3.324,1.534,2.626,2.626,0,0,1-1.278-3.324,26.344,26.344,0,0,1,24.293-16.621,26.078,26.078,0,0,1,22.5,12.786,2.323,2.323,0,0,1,0,2.557,2.685,2.685,0,0,1-2.3,1.278H387.026l-8.183,9.462,8.439,9.462h15.854a2.685,2.685,0,0,1,2.3,1.278,2.323,2.323,0,0,1,0,2.557A26.5,26.5,0,0,1,382.679,395.461Z" transform="translate(-305.965 -343.039)" fill="#183651"/>
    <rect id="Rectangle_21" data-name="Rectangle 21" width="5.114" height="5.114" transform="translate(0 23.526)" fill="#183651"/>
    <rect id="Rectangle_22" data-name="Rectangle 22" width="5.114" height="5.114" transform="translate(15.343 23.526)" fill="#183651"/>
    <rect id="Rectangle_23" data-name="Rectangle 23" width="5.114" height="5.114" transform="translate(30.686 23.526)" fill="#183651"/>
  </g>
  <path id="Path_115" data-name="Path 115" d="M52,96.534l13.553-2.3L65.04,84a29.522,29.522,0,0,0,8.439-5.37l8.95,4.859,7.927-11.251-7.672-6.9a31.723,31.723,0,0,0,2.3-9.717L94.7,52.807,92.4,39.254l-10.229.511a23.029,23.029,0,0,0-5.114-8.694l4.859-8.95L70.666,14.194l-6.9,7.672a31.723,31.723,0,0,0-9.717-2.3L51.232,9.847l-13.553,2.3.511,10.229a35.4,35.4,0,0,0-8.439,5.114l-9.205-4.859L12.619,33.884l7.671,6.9a31.723,31.723,0,0,0-2.3,9.717L8.272,53.318l2.3,13.553L20.8,66.36a29.522,29.522,0,0,0,5.37,8.439l-4.859,8.95,11.251,7.927L39.469,84a31.723,31.723,0,0,0,9.717,2.3Z" transform="translate(-5.587 -6.778)" fill="#fff"/>
  <path id="Path_116" data-name="Path 116" d="M47.108,93.669a3.079,3.079,0,0,1-2.557-1.79L41.994,83.7a35.838,35.838,0,0,1-7.16-1.534l-5.626,6.393a2.391,2.391,0,0,1-3.324.256l-11-8.183a2.71,2.71,0,0,1-.767-3.324l4.091-7.416a24.89,24.89,0,0,1-3.836-6.137l-8.439.511a2.49,2.49,0,0,1-2.557-2.046L1.08,48.663A2.356,2.356,0,0,1,2.87,45.85l8.183-2.557a22.184,22.184,0,0,1,1.278-7.16L5.939,30.508a2.391,2.391,0,0,1-.256-3.324L13.61,15.932a2.71,2.71,0,0,1,3.324-.767l7.416,4.091a24.889,24.889,0,0,1,6.137-3.836l-.256-8.694a2.49,2.49,0,0,1,2.046-2.557l13.553-2.3a2.356,2.356,0,0,1,2.813,1.79L51.2,11.841a35.838,35.838,0,0,1,7.16,1.534l5.626-6.393a2.391,2.391,0,0,1,3.324-.256l11.251,7.927a2.71,2.71,0,0,1,.767,3.324l-4.091,7.416a30.766,30.766,0,0,1,3.836,6.137l8.439-.511a2.49,2.49,0,0,1,2.557,2.046l2.3,13.553a2.356,2.356,0,0,1-1.79,2.813L82.4,51.988a35.838,35.838,0,0,1-1.534,7.16l6.393,5.626a2.391,2.391,0,0,1,.256,3.324L79.584,79.349a2.71,2.71,0,0,1-3.324.767l-7.416-4.092a24.889,24.889,0,0,1-6.137,3.836l.511,8.439a2.49,2.49,0,0,1-2.046,2.557l-13.553,2.3C47.364,93.669,47.364,93.669,47.108,93.669ZM34.578,76.536a1.933,1.933,0,0,1,1.023.256,35.061,35.061,0,0,0,8.95,2.046,2.456,2.456,0,0,1,2.3,1.79l2.3,7.672,9.206-1.534-.511-7.927a2.812,2.812,0,0,1,1.534-2.557,36.711,36.711,0,0,0,7.927-4.859,2.326,2.326,0,0,1,2.813-.256L77.027,75l5.37-7.416L76.26,61.705a2.886,2.886,0,0,1-.767-2.813,35.061,35.061,0,0,0,2.046-8.95,2.456,2.456,0,0,1,1.79-2.3L87,45.339l-1.534-9.206-7.927.511a2.812,2.812,0,0,1-2.557-1.534,36.711,36.711,0,0,0-4.859-7.927,2.326,2.326,0,0,1-.256-2.813l3.836-6.9L66.287,12.1l-5.37,5.881a2.886,2.886,0,0,1-2.813.767,35.061,35.061,0,0,0-8.95-2.046,2.456,2.456,0,0,1-2.3-1.79l-2.3-7.671L35.346,8.772l.511,7.927a2.812,2.812,0,0,1-1.534,2.557A36.711,36.711,0,0,0,26.4,24.114a2.326,2.326,0,0,1-2.813.256l-7.16-3.835-5.114,7.671,5.881,5.37a2.886,2.886,0,0,1,.767,2.813,35.061,35.061,0,0,0-2.046,8.95,2.456,2.456,0,0,1-1.79,2.3l-7.671,2.3,1.278,8.95,7.927-.511a2.812,2.812,0,0,1,2.557,1.534,36.711,36.711,0,0,0,4.859,7.927,2.326,2.326,0,0,1,.256,2.813l-3.836,6.9,7.416,5.37,5.37-5.881A7.459,7.459,0,0,1,34.578,76.536Z" transform="translate(-0.697 -1.356)" fill="#183651"/>
  <ellipse id="Ellipse_6" data-name="Ellipse 6" cx="26.338" cy="26.338" rx="26.338" ry="26.338" transform="translate(19.818 19.946)" fill="#fcd462"/>
  <circle id="Ellipse_7" data-name="Ellipse 7" cx="12.019" cy="12.019" r="12.019" transform="translate(31.625 31.743)" fill="#fff"/>
  <path id="Path_117" data-name="Path 117" d="M111.863,126.687a14.678,14.678,0,0,1-2.3-29.151,7.88,7.88,0,0,1,2.557-.256,14.678,14.678,0,0,1,2.3,29.151A9.588,9.588,0,0,1,111.863,126.687Zm0-24.037a3.242,3.242,0,0,0-1.534.256,9.818,9.818,0,0,0-6.137,3.836,8.875,8.875,0,0,0-1.534,7.16,9.4,9.4,0,0,0,9.462,7.927,3.242,3.242,0,0,0,1.534-.256,9.818,9.818,0,0,0,6.137-3.836,8.875,8.875,0,0,0,1.534-7.16A9.807,9.807,0,0,0,111.863,102.65Z" transform="translate(-68.124 -68.235)" fill="#183651"/>
  <path id="Path_118" data-name="Path 118" d="M307.3,163.788l10.484,2.557,2.813-7.671a27.072,27.072,0,0,0,7.927-1.278l5.114,6.393,9.206-5.626-3.324-7.416a29.1,29.1,0,0,0,4.6-6.393l7.927,1.023,2.557-10.484-7.671-2.813a27.072,27.072,0,0,0-1.278-7.927l6.393-5.114-5.626-9.206L339,113.157a29.1,29.1,0,0,0-6.393-4.6l1.023-7.927L323.15,98.07l-2.813,7.672a27.072,27.072,0,0,0-7.927,1.278l-5.114-6.393-9.206,5.626,3.324,7.416a29.1,29.1,0,0,0-4.6,6.393l-7.927-1.023-2.557,10.484L294,132.335a27.073,27.073,0,0,0,1.278,7.927l-6.393,5.114,5.626,9.206,7.416-3.324a29.1,29.1,0,0,0,6.393,4.6Z" transform="translate(-203.669 -69.778)" fill="#fff"/>
  <path id="Path_119" data-name="Path 119" d="M312.357,163.979h-.511l-10.484-2.557a2.772,2.772,0,0,1-2.046-2.813l.767-6.393a15.6,15.6,0,0,1-4.091-3.068L290.11,151.7a2.8,2.8,0,0,1-3.324-1.023l-5.626-9.206a2.425,2.425,0,0,1,.511-3.324l5.114-3.836a16.491,16.491,0,0,1-.767-5.114l-5.881-2.3a2.356,2.356,0,0,1-1.79-2.813L280.9,113.6a2.772,2.772,0,0,1,2.813-2.046l6.393.767a15.6,15.6,0,0,1,3.068-4.091l-2.557-5.881a2.8,2.8,0,0,1,1.023-3.324L300.85,93.4a2.425,2.425,0,0,1,3.324.511l3.836,5.114a16.492,16.492,0,0,1,5.114-.767l2.3-5.881a2.609,2.609,0,0,1,3.068-1.534L328.978,93.4a2.772,2.772,0,0,1,2.046,2.813L330,102.352a15.6,15.6,0,0,1,4.091,3.068l5.882-2.557a2.8,2.8,0,0,1,3.324,1.023l5.626,9.206a2.425,2.425,0,0,1-.511,3.324l-5.114,3.836a17.725,17.725,0,0,1,.767,5.114l5.881,2.3a2.609,2.609,0,0,1,1.534,3.068l-2.557,10.484a2.772,2.772,0,0,1-2.813,2.046l-6.393-.767a15.6,15.6,0,0,1-3.069,4.091l2.557,5.881a2.8,2.8,0,0,1-1.023,3.324l-9.206,5.626a2.425,2.425,0,0,1-3.324-.511l-3.836-5.114a16.49,16.49,0,0,1-5.114.767l-2.046,5.881A2.59,2.59,0,0,1,312.357,163.979Zm-7.671-7.16,6.137,1.534,2.046-5.37a2.236,2.236,0,0,1,2.3-1.534,23.1,23.1,0,0,0,7.16-1.023,2.886,2.886,0,0,1,2.813.767l3.58,4.6,5.37-3.324-2.557-5.37a2.335,2.335,0,0,1,.511-2.813,21.057,21.057,0,0,0,4.091-5.626,2.241,2.241,0,0,1,2.557-1.278l5.881.767,1.534-6.137-5.37-2.046a2.236,2.236,0,0,1-1.534-2.3,23.1,23.1,0,0,0-1.023-7.16,2.886,2.886,0,0,1,.767-2.813l4.6-3.58-3.324-5.37-5.37,2.3a2.335,2.335,0,0,1-2.813-.511,18.736,18.736,0,0,0-5.881-4.091,2.241,2.241,0,0,1-1.278-2.557L325.654,98l-6.137-1.534-2.3,5.114a2.236,2.236,0,0,1-2.3,1.534,23.1,23.1,0,0,0-7.16,1.023,2.886,2.886,0,0,1-2.813-.767l-3.58-4.6-5.37,3.324,2.3,5.37a2.335,2.335,0,0,1-.511,2.813,18.736,18.736,0,0,0-4.091,5.881,2.241,2.241,0,0,1-2.557,1.278l-5.881-.767-1.278,6.393,5.37,2.046a2.236,2.236,0,0,1,1.534,2.3,23.1,23.1,0,0,0,1.023,7.16,2.886,2.886,0,0,1-.767,2.813l-4.6,3.58,3.324,5.37,5.37-2.3a2.335,2.335,0,0,1,2.813.511,18.736,18.736,0,0,0,5.881,4.091,2.241,2.241,0,0,1,1.278,2.557Z" transform="translate(-198.246 -64.772)" fill="#183651"/>
  <ellipse id="Ellipse_8" data-name="Ellipse 8" cx="19.434" cy="19.434" rx="19.434" ry="19.434" transform="translate(97.233 42.707)" fill="#ff7058"/>
  <ellipse id="Ellipse_9" data-name="Ellipse 9" cx="9.462" cy="9.462" rx="9.462" ry="9.462" transform="translate(109.158 52.5)" fill="#fff"/>
  <path id="Path_120" data-name="Path 120" d="M366.734,190.634a9.584,9.584,0,0,1-2.813-.256,12.232,12.232,0,0,1-8.95-14.576,12.06,12.06,0,0,1,11.763-9.206,9.585,9.585,0,0,1,2.813.256,12.232,12.232,0,0,1,8.95,14.576A12.515,12.515,0,0,1,366.734,190.634Zm-.256-19.179a7.01,7.01,0,0,0-1.534,13.809,7.028,7.028,0,0,0,8.439-5.114,6.834,6.834,0,0,0-5.114-8.439C367.757,171.711,367.246,171.456,366.479,171.456Z" transform="translate(-248.267 -116.613)" fill="#183651"/>
</svg>
