<svg xmlns="http://www.w3.org/2000/svg" width="155" height="157" viewBox="0 0 155 157">
  <g id="team" transform="translate(0.281 0.471)">
    <ellipse id="Ellipse_3" data-name="Ellipse 3" cx="77.5" cy="78.5" rx="77.5" ry="78.5" transform="translate(-0.281 -0.471)" fill="#84dbff"/>
    <path id="Path_59" data-name="Path 59" d="M395.756,175.56a4.424,4.424,0,0,1-.86,2.7,19.276,19.276,0,0,0-9.218-2.212,17.381,17.381,0,0,0-9.218,2.212,5.4,5.4,0,0,1-.86-2.7c0-3.687,4.547-6.76,10.078-6.76S395.756,171.873,395.756,175.56Z" transform="translate(-260.806 -116.935)" fill="#f1543f"/>
    <path id="Path_60" data-name="Path 60" d="M388.6,211.45A46.733,46.733,0,0,1,387,223H355.537c-.246-1.106-.492-2.089-.737-3.2,2.95-5.285,6.145-14.011,4.547-23.352,3.073-2.827,7.251-4.056,11.8-4.056C380.855,192.4,388.6,197.685,388.6,211.45Z" transform="translate(-246.397 -133.284)" fill="#ff7058"/>
    <path id="Path_61" data-name="Path 61" d="M394.091,322.735s.86,4.916-4.793,9.955l-17.7-8.6a11.636,11.636,0,0,1,.983-3.687c2.7,4.916,6.391,8.234,10.447,8.234s7.743-3.441,10.447-8.234a12.961,12.961,0,0,1,.615,2.335Z" transform="translate(-258.035 -221.955)" fill="#f9b54c"/>
    <path id="Path_62" data-name="Path 62" d="M459.83,347.316a75,75,0,0,1-10.447,16.961l-.983-3.2c.614-1.844,2.95-12.167,1.475-18.681Z" transform="translate(-311.237 -237.195)" fill="#4cdbc4"/>
    <g id="Group_66" data-name="Group 66" transform="translate(112.705 100.657)">
      <path id="Path_63" data-name="Path 63" d="M435.1,350.829l-3.933-12.29-1.966-.983c5.654-5.039,4.793-9.955,4.793-9.955C439.524,331.9,435.837,348.371,435.1,350.829Z" transform="translate(-410.642 -327.6)" fill="#fff"/>
      <path id="Path_64" data-name="Path 64" d="M369.783,328c-.123.369-.123.86-.246,1.352l-.737-.369A3.738,3.738,0,0,1,369.783,328Z" transform="translate(-368.8 -327.877)" fill="#fff"/>
    </g>
    <path id="Path_65" data-name="Path 65" d="M384.936,249.693c-1.106,2.212-2.95,3.2-4.179,2.458-2.827,7.251-7.374,12.9-12.659,12.9s-9.832-5.653-12.659-12.9c-1.229.737-3.073-.369-4.179-2.458a9.212,9.212,0,0,1-.86-2.827,24.557,24.557,0,0,0,1.844-3.2,2.4,2.4,0,0,1,.86.123h0l.123.123h0c0-.123-.492-4.67,11.553-9.586,4.3-1.721,7.005-3.687,8.6-5.531.615,2.7,2.089,6.514,6.022,7.989,0,0,3.687.86,3.318,7.005h0a1.71,1.71,0,0,1,1.721.123C386.042,244.9,386.165,247.481,384.936,249.693Z" transform="translate(-243.348 -158.5)" fill="#ffd05b"/>
    <path id="Path_66" data-name="Path 66" d="M331.162,378.3h0c-.246,1.721-.615,3.564-.86,5.531L326,370.8A15.727,15.727,0,0,1,331.162,378.3Z" transform="translate(-226.446 -256.869)" fill="#e6e9ee"/>
    <path id="Path_67" data-name="Path 67" d="M278.67,302.892s1.475,8.112-10.324,15.117l-13.4-6.514c-3.564-4.67-2.827-8.6-2.827-8.6H252a.929.929,0,0,1,.123-.492c3.687,4.547,8.234,7.5,13.273,7.5s9.586-2.95,13.273-7.5c0,.246.123.369,0,.492Z" transform="translate(-175.183 -209.486)" fill="#f9b54c"/>
    <path id="Path_68" data-name="Path 68" d="M374.013,349.868a78.2,78.2,0,0,1-27.407,21.508L339.6,349.745c.369-1.844.615-3.687.86-5.531.123.246,3.933-14.011,1.844-22.614l26.547,12.782Z" transform="translate(-235.867 -222.786)" fill="#2b3b4e"/>
    <g id="Group_67" data-name="Group 67" transform="translate(73.868 93.406)">
      <path id="Path_69" data-name="Path 69" d="M317.03,332.3a15.144,15.144,0,0,0-5.162-7.5l-.86-2.7-5.408-2.581c11.8-7.005,10.324-15.117,10.324-15.117C323.175,309.808,317.153,332.668,317.03,332.3Z" transform="translate(-286.181 -304.277)" fill="#fff"/>
      <path id="Path_70" data-name="Path 70" d="M248.3,312.6l-5.9-2.827A9.439,9.439,0,0,1,245.473,304S244.735,307.933,248.3,312.6Z" transform="translate(-242.4 -304)" fill="#fff"/>
    </g>
    <path id="Path_71" data-name="Path 71" d="M272.079,225.7a76.3,76.3,0,0,0-2.458,8.726h0c-3.933,5.285-8.972,8.972-14.38,8.972-5.162,0-9.955-3.2-13.765-7.989a.12.12,0,0,1,.123.123c-3.687-4.547-4.547-10.938-4.424-16.469h0A46.855,46.855,0,0,0,240.125,208c4.916,3.687,16.223,3.933,16.223,3.933-5.776-.983-6.637-5.531-6.637-5.531.983,2.827,13.765,4.547,13.765,4.547C276.5,212.791,272.079,225.7,272.079,225.7Z" transform="translate(-164.905 -142.982)" fill="#ffd05b"/>
    <g id="Group_68" data-name="Group 68" transform="translate(68.706 43.177)">
      <path id="Path_72" data-name="Path 72" d="M233.466,264.069a37.76,37.76,0,0,1-7.866-9.464,53.31,53.31,0,0,0,3.441-7.005C228.918,253.131,229.779,259.522,233.466,264.069Z" transform="translate(-225.6 -214.7)" fill="#2b3b4e"/>
      <path id="Path_73" data-name="Path 73" d="M269.092,188.91a86.069,86.069,0,0,1,2.458-8.726s4.424-12.9-8.849-14.871c0,0-12.782-1.721-13.765-4.547a7.669,7.669,0,0,0,6.637,5.531s-11.307-.246-16.223-3.933A35.345,35.345,0,0,0,236.4,142.7c2.581-1.352,5.9-1.844,10.447-.615,0,0,17.944-7.128,27.162,9.095C283.84,168.508,271.55,187.312,269.092,188.91Z" transform="translate(-233.082 -140.524)" fill="#2b3b4e"/>
    </g>
    <path id="Path_74" data-name="Path 74" d="M272.607,239.2H248.764a3.567,3.567,0,0,0-3.564,3.564v2.95a3.567,3.567,0,0,0,3.564,3.564h6.883a3.88,3.88,0,0,0,2.335-.86.96.96,0,0,0,.492-.492,2.282,2.282,0,0,1,4.424,0,.959.959,0,0,0,.492.492,3.244,3.244,0,0,0,2.335.86h6.883a3.567,3.567,0,0,0,3.564-3.564v-2.95A3.567,3.567,0,0,0,272.607,239.2Zm-23.843,8.357a1.89,1.89,0,0,1-1.844-1.844v-2.95a1.89,1.89,0,0,1,1.844-1.844h7.005a1.89,1.89,0,0,1,1.844,1.844v2.95a1.559,1.559,0,0,1-.123.737c-.123.123-.123.246-.246.369a1.752,1.752,0,0,1-1.475.737Zm11.922-3.2a3.272,3.272,0,0,0-1.475.369v-2.089a4.072,4.072,0,0,0-.492-1.844h4.056a3.2,3.2,0,0,0-.492,1.844v2.089A4.243,4.243,0,0,0,260.686,244.362Zm13.765,1.352a1.89,1.89,0,0,1-1.844,1.844h-6.883a1.752,1.752,0,0,1-1.475-.737c-.123-.123-.123-.246-.246-.369a1.559,1.559,0,0,1-.123-.737v-2.95a1.89,1.89,0,0,1,1.844-1.844h6.883a1.89,1.89,0,0,1,1.844,1.844v2.95Z" transform="translate(-170.472 -165.704)" fill="#324a5e"/>
    <g id="Group_69" data-name="Group 69" transform="translate(23.232 109.261)">
      <path id="Path_75" data-name="Path 75" d="M77.6,436.4c.123.246.369.369.492.492-.123-.123-.369-.246-.492-.492Z" transform="translate(-77.6 -411.574)" fill="#e6e9ee"/>
      <path id="Path_76" data-name="Path 76" d="M158.337,355.6c-.123,0-.246.123-.369.123s-.246-.123-.369-.123Z" transform="translate(-133.019 -355.6)" fill="#e6e9ee"/>
      <path id="Path_77" data-name="Path 77" d="M137.521,369.4a195.056,195.056,0,0,1-7.251,30.849,79.159,79.159,0,0,1-22.368-9.709,161.476,161.476,0,0,1-4.3-21.139c3.933-12.29,16.961-13.4,16.961-13.4S133.711,357.106,137.521,369.4Z" transform="translate(-95.611 -355.877)" fill="#e6e9ee"/>
    </g>
    <path id="Path_78" data-name="Path 78" d="M138.663,290.892s1.966,11.061-15.609,19.664h-.123c-17.575-8.6-15.609-19.664-15.609-19.664H107.2c0-.123.123-.369.123-.492,4.3,5.285,9.709,8.726,15.609,8.726s11.184-3.441,15.609-8.726c.123.246.246.369.123.492C138.786,291.015,138.786,290.892,138.663,290.892Z" transform="translate(-74.873 -201.173)" fill="#f9b54c"/>
    <g id="Group_70" data-name="Group 70" transform="translate(42.036 109.383)">
      <path id="Path_79" data-name="Path 79" d="M158.923,356Z" transform="translate(-152.655 -356)" fill="#54c0eb"/>
      <path id="Path_80" data-name="Path 80" d="M151.213,357.721l-2.089,6.022h-8.234l-2.089-6.022A22.461,22.461,0,0,1,144.945,356,22.64,22.64,0,0,1,151.213,357.721Z" transform="translate(-138.8 -356)" fill="#54c0eb"/>
    </g>
    <path id="Path_81" data-name="Path 81" d="M149.575,417.579,144.413,381.2h-8.234L132,410.574A76.073,76.073,0,0,0,149.575,417.579Z" transform="translate(-92.053 -264.074)" fill="#84dbff"/>
    <path id="Path_82" data-name="Path 82" d="M49.157,360.886A78.222,78.222,0,0,1,18.8,324.63L42.643,313.2c-2.458,10.324,2.089,27.039,2.212,26.67A194.167,194.167,0,0,0,49.157,360.886Z" transform="translate(-13.635 -216.967)" fill="#324a5e"/>
    <g id="Group_71" data-name="Group 71" transform="translate(28.332 89.719)">
      <path id="Path_83" data-name="Path 83" d="M174.409,292s1.966,11.061-15.609,19.664c0,0,13.151.983,16.961,13.4C176.006,325.43,183.135,298.637,174.409,292Z" transform="translate(-138.95 -292)" fill="#fff"/>
      <path id="Path_84" data-name="Path 84" d="M98.439,292c-8.6,6.514-1.475,33.43-1.352,32.938,3.933-12.29,16.961-13.4,16.961-13.4C96.472,303.184,98.439,292,98.439,292Z" transform="translate(-94.198 -292)" fill="#fff"/>
    </g>
    <path id="Path_85" data-name="Path 85" d="M130.715,199.66a107.287,107.287,0,0,0-2.95,10.324c-4.547,6.268-10.447,10.447-16.961,10.447-6.145,0-11.676-3.81-16.223-9.464l.123.123c-9.586-11.8-2.95-33.552-2.95-33.552,4.793,5.408,20.279,5.776,20.279,5.776-6.76-1.106-7.866-6.514-7.866-6.514,1.106,3.318,16.1,5.285,16.1,5.285C135.877,184.543,130.715,199.66,130.715,199.66Z" transform="translate(-62.624 -122.477)" fill="#ffd05b"/>
    <g id="Group_72" data-name="Group 72" transform="translate(17.539 30.578)">
      <path id="Path_86" data-name="Path 86" d="M80.743,101.387s21.139-8.48,31.832,10.693c11.553,20.4-2.95,42.647-5.9,44.368a107.286,107.286,0,0,1,2.95-10.324s5.162-15.117-10.324-17.452c0,0-15.117-1.966-16.1-5.285,0,0,1.106,5.408,7.866,6.514,0,0-15.486-.369-20.279-5.776,0,0-6.637,21.754,3.073,33.552,0,0-16.592-13.274-14.625-33.8C59.112,123.879,58.252,95.734,80.743,101.387Z" transform="translate(-59.073 -99.519)" fill="#324a5e"/>
      <path id="Path_87" data-name="Path 87" d="M243.525,365.279a77.8,77.8,0,0,1-52.725,5.039,195.051,195.051,0,0,0,7.251-30.849h0c.246,0,4.547-16.469,2.212-26.67l31.217,15.117Z" transform="translate(-150.326 -247.268)" fill="#324a5e"/>
    </g>
  </g>
</svg>
